<?xml version="1.0" encoding="UTF-8"?><svg xmlns="http://www.w3.org/2000/svg" xmlns:xlink="http://www.w3.org/1999/xlink" fill-opacity="1" color-rendering="auto" color-interpolation="auto" stroke="black" text-rendering="auto" stroke-linecap="square" width="987" stroke-miterlimit="10" stroke-opacity="1" shape-rendering="auto" fill="black" stroke-dasharray="none" font-weight="normal" stroke-width="1" height="375" font-family="'Dialog'" font-style="normal" stroke-linejoin="miter" font-size="12" stroke-dashoffset="0" image-rendering="auto">
  <!--Generated by ySVG 2.5-->
  <defs id="genericDefs"/>
  <g>
    <defs id="defs1">
      <clipPath clipPathUnits="userSpaceOnUse" id="clipPath1">
        <path d="M0 0 L987 0 L987 375 L0 375 L0 0 Z"/>
      </clipPath>
      <clipPath clipPathUnits="userSpaceOnUse" id="clipPath2">
        <path d="M65 100 L1052 100 L1052 475 L65 475 L65 100 Z"/>
      </clipPath>
    </defs>
    <g fill="white" text-rendering="geometricPrecision" shape-rendering="geometricPrecision" transform="translate(-65,-100)" stroke="white">
      <rect x="65" width="987" height="375" y="100" clip-path="url(#clipPath2)" stroke="none"/>
    </g>
    <g fill="rgb(153,204,0)" text-rendering="geometricPrecision" shape-rendering="geometricPrecision" transform="matrix(1,0,0,1,-65,-100)" stroke="rgb(153,204,0)">
      <ellipse rx="62" ry="47" clip-path="url(#clipPath2)" cx="486" cy="234" stroke="none"/>
    </g>
    <g text-rendering="geometricPrecision" stroke-miterlimit="1.45" shape-rendering="geometricPrecision" font-family="sans-serif" transform="matrix(1,0,0,1,-65,-100)" stroke-linecap="butt">
      <text x="437.7861" xml:space="preserve" y="238.5352" clip-path="url(#clipPath2)" stroke="none">Edge - Junctions</text>
      <ellipse rx="62" fill="none" ry="47" clip-path="url(#clipPath2)" cx="486" cy="234"/>
    </g>
    <g fill="rgb(153,204,255)" text-rendering="geometricPrecision" shape-rendering="geometricPrecision" transform="matrix(1,0,0,1,-65,-100)" stroke="rgb(153,204,255)">
      <rect x="298" width="136" height="30" y="321" clip-path="url(#clipPath2)" stroke="none"/>
    </g>
    <g text-rendering="geometricPrecision" stroke-miterlimit="1.45" shape-rendering="geometricPrecision" font-family="sans-serif" transform="matrix(1,0,0,1,-65,-100)" stroke-linecap="butt">
      <text x="305.7744" xml:space="preserve" y="340.5352" clip-path="url(#clipPath2)" stroke="none">Edge_T1_Transitions</text>
      <rect fill="none" x="298" width="136" height="30" y="321" clip-path="url(#clipPath2)"/>
    </g>
    <g fill="rgb(153,204,255)" text-rendering="geometricPrecision" shape-rendering="geometricPrecision" transform="matrix(1,0,0,1,-65,-100)" stroke="rgb(153,204,255)">
      <rect x="243.6" width="136" height="30" y="282.5" clip-path="url(#clipPath2)" stroke="none"/>
    </g>
    <g text-rendering="geometricPrecision" stroke-miterlimit="1.45" shape-rendering="geometricPrecision" font-family="sans-serif" transform="matrix(1,0,0,1,-65,-100)" stroke-linecap="butt">
      <text x="271.3402" xml:space="preserve" y="302.0352" clip-path="url(#clipPath2)" stroke="none">Edge_Stability</text>
      <rect fill="none" x="243.6" width="136" height="30" y="282.5" clip-path="url(#clipPath2)"/>
    </g>
    <g fill="rgb(153,204,255)" text-rendering="geometricPrecision" shape-rendering="geometricPrecision" transform="matrix(1,0,0,1,-65,-100)" stroke="rgb(153,204,255)">
      <rect x="305" width="136" height="30" y="160" clip-path="url(#clipPath2)" stroke="none"/>
    </g>
    <g text-rendering="geometricPrecision" stroke-miterlimit="1.45" shape-rendering="geometricPrecision" font-family="sans-serif" transform="matrix(1,0,0,1,-65,-100)" stroke-linecap="butt">
      <text x="330.9531" xml:space="preserve" y="179.5352" clip-path="url(#clipPath2)" stroke="none">Edge_Intensity</text>
      <rect fill="none" x="305" width="136" height="30" y="160" clip-path="url(#clipPath2)"/>
    </g>
    <g fill="rgb(153,204,255)" text-rendering="geometricPrecision" shape-rendering="geometricPrecision" transform="matrix(1,0,0,1,-65,-100)" stroke="rgb(153,204,255)">
      <rect x="241" width="136" height="30" y="200" clip-path="url(#clipPath2)" stroke="none"/>
    </g>
    <g text-rendering="geometricPrecision" stroke-miterlimit="1.45" shape-rendering="geometricPrecision" font-family="sans-serif" transform="matrix(1,0,0,1,-65,-100)" stroke-linecap="butt">
      <text x="259.0254" xml:space="preserve" y="219.5352" clip-path="url(#clipPath2)" stroke="none">Edge_Orientation</text>
      <rect fill="none" x="241" width="136" height="30" y="200" clip-path="url(#clipPath2)"/>
    </g>
    <g fill="rgb(153,204,255)" text-rendering="geometricPrecision" shape-rendering="geometricPrecision" transform="matrix(1,0,0,1,-65,-100)" stroke="rgb(153,204,255)">
      <rect x="241" width="136" height="30" y="240" clip-path="url(#clipPath2)" stroke="none"/>
    </g>
    <g text-rendering="geometricPrecision" stroke-miterlimit="1.45" shape-rendering="geometricPrecision" font-family="sans-serif" transform="matrix(1,0,0,1,-65,-100)" stroke-linecap="butt">
      <text x="262.3271" xml:space="preserve" y="259.5352" clip-path="url(#clipPath2)" stroke="none">Edge_Color_Tag</text>
      <rect fill="none" x="241" width="136" height="30" y="240" clip-path="url(#clipPath2)"/>
    </g>
    <g fill="rgb(153,204,0)" text-rendering="geometricPrecision" shape-rendering="geometricPrecision" transform="matrix(1,0,0,1,-65,-100)" stroke="rgb(153,204,0)">
      <ellipse rx="62" ry="47" clip-path="url(#clipPath2)" cx="622.475" cy="234" stroke="none"/>
    </g>
    <g text-rendering="geometricPrecision" stroke-miterlimit="1.45" shape-rendering="geometricPrecision" font-family="sans-serif" transform="matrix(1,0,0,1,-65,-100)" stroke-linecap="butt">
      <text x="578.0111" xml:space="preserve" y="238.5352" clip-path="url(#clipPath2)" stroke="none">Vertices - Cells</text>
      <ellipse rx="62" fill="none" ry="47" clip-path="url(#clipPath2)" cx="622.475" cy="234"/>
    </g>
    <g fill="rgb(255,204,0)" text-rendering="geometricPrecision" shape-rendering="geometricPrecision" transform="matrix(1,0,0,1,-65,-100)" stroke="rgb(255,204,0)">
      <rect x="80.2" width="136" height="30" y="195" clip-path="url(#clipPath2)" stroke="none"/>
    </g>
    <g text-rendering="geometricPrecision" stroke-miterlimit="1.45" shape-rendering="geometricPrecision" font-family="sans-serif" transform="matrix(1,0,0,1,-65,-100)" stroke-linecap="butt">
      <text x="96.7576" xml:space="preserve" y="214.5352" clip-path="url(#clipPath2)" stroke="none">Orientation Angle</text>
      <rect fill="none" x="80.2" width="136" height="30" y="195" clip-path="url(#clipPath2)"/>
    </g>
    <g fill="rgb(255,204,0)" text-rendering="geometricPrecision" shape-rendering="geometricPrecision" transform="matrix(1,0,0,1,-65,-100)" stroke="rgb(255,204,0)">
      <rect x="80.2" width="136" height="30" y="230" clip-path="url(#clipPath2)" stroke="none"/>
    </g>
    <g text-rendering="geometricPrecision" stroke-miterlimit="1.45" shape-rendering="geometricPrecision" font-family="sans-serif" transform="matrix(1,0,0,1,-65,-100)" stroke-linecap="butt">
      <text x="98.1492" xml:space="preserve" y="249.5352" clip-path="url(#clipPath2)" stroke="none">Manual Grouping</text>
      <rect fill="none" x="80.2" width="136" height="30" y="230" clip-path="url(#clipPath2)"/>
    </g>
    <g fill="rgb(255,204,0)" text-rendering="geometricPrecision" shape-rendering="geometricPrecision" transform="matrix(1,0,0,1,-65,-100)" stroke="rgb(255,204,0)">
      <rect x="80.2" width="136" height="30" y="300" clip-path="url(#clipPath2)" stroke="none"/>
    </g>
    <g text-rendering="geometricPrecision" stroke-miterlimit="1.45" shape-rendering="geometricPrecision" font-family="sans-serif" transform="matrix(1,0,0,1,-65,-100)" stroke-linecap="butt">
      <text x="100.7478" xml:space="preserve" y="319.5352" clip-path="url(#clipPath2)" stroke="none">Rearrangements</text>
      <rect fill="none" x="80.2" width="136" height="30" y="300" clip-path="url(#clipPath2)"/>
    </g>
    <g fill="rgb(255,204,0)" text-rendering="geometricPrecision" shape-rendering="geometricPrecision" transform="matrix(1,0,0,1,-65,-100)" stroke="rgb(255,204,0)">
      <rect x="80.2" width="136" height="30" y="334" clip-path="url(#clipPath2)" stroke="none"/>
    </g>
    <g text-rendering="geometricPrecision" stroke-miterlimit="1.45" shape-rendering="geometricPrecision" font-family="sans-serif" transform="matrix(1,0,0,1,-65,-100)" stroke-linecap="butt">
      <text x="112.1414" xml:space="preserve" y="353.5352" clip-path="url(#clipPath2)" stroke="none">Size (length)</text>
      <rect fill="none" x="80.2" width="136" height="30" y="334" clip-path="url(#clipPath2)"/>
    </g>
    <g fill="rgb(255,204,0)" text-rendering="geometricPrecision" shape-rendering="geometricPrecision" transform="matrix(1,0,0,1,-65,-100)" stroke="rgb(255,204,0)">
      <rect x="80.2" width="136" height="30" y="160" clip-path="url(#clipPath2)" stroke="none"/>
    </g>
    <g text-rendering="geometricPrecision" stroke-miterlimit="1.45" shape-rendering="geometricPrecision" font-family="sans-serif" transform="matrix(1,0,0,1,-65,-100)" stroke-linecap="butt">
      <text x="103.8885" xml:space="preserve" y="179.5352" clip-path="url(#clipPath2)" stroke="none">Signal Intensity</text>
      <rect fill="none" x="80.2" width="136" height="30" y="160" clip-path="url(#clipPath2)"/>
    </g>
    <g fill="rgb(255,204,0)" text-rendering="geometricPrecision" shape-rendering="geometricPrecision" transform="matrix(1,0,0,1,-65,-100)" stroke="rgb(255,204,0)">
      <rect x="80.2" width="136" height="30" y="265" clip-path="url(#clipPath2)" stroke="none"/>
    </g>
    <g text-rendering="geometricPrecision" stroke-miterlimit="1.45" shape-rendering="geometricPrecision" font-family="sans-serif" transform="matrix(1,0,0,1,-65,-100)" stroke-linecap="butt">
      <text x="102.8953" xml:space="preserve" y="284.5352" clip-path="url(#clipPath2)" stroke="none">Tip Information</text>
      <rect fill="none" x="80.2" width="136" height="30" y="265" clip-path="url(#clipPath2)"/>
    </g>
    <g fill="rgb(255,204,0)" text-rendering="geometricPrecision" shape-rendering="geometricPrecision" transform="matrix(1,0,0,1,-65,-100)" stroke="rgb(255,204,0)">
      <rect x="900.4" width="136" height="30" y="300" clip-path="url(#clipPath2)" stroke="none"/>
    </g>
    <g text-rendering="geometricPrecision" stroke-miterlimit="1.45" shape-rendering="geometricPrecision" font-family="sans-serif" transform="matrix(1,0,0,1,-65,-100)" stroke-linecap="butt">
      <text x="916.9869" xml:space="preserve" y="319.5352" clip-path="url(#clipPath2)" stroke="none">Neighbor number</text>
      <rect fill="none" x="900.4" width="136" height="30" y="300" clip-path="url(#clipPath2)"/>
    </g>
    <g fill="rgb(255,204,0)" text-rendering="geometricPrecision" shape-rendering="geometricPrecision" transform="matrix(1,0,0,1,-65,-100)" stroke="rgb(255,204,0)">
      <rect x="900.4" width="136" height="30" y="334.25" clip-path="url(#clipPath2)" stroke="none"/>
    </g>
    <g text-rendering="geometricPrecision" stroke-miterlimit="1.45" shape-rendering="geometricPrecision" font-family="sans-serif" transform="matrix(1,0,0,1,-65,-100)" stroke-linecap="butt">
      <text x="937.5621" xml:space="preserve" y="353.7852" clip-path="url(#clipPath2)" stroke="none">Elongation</text>
      <rect fill="none" x="900.4" width="136" height="30" y="334.25" clip-path="url(#clipPath2)"/>
    </g>
    <g fill="rgb(255,204,0)" text-rendering="geometricPrecision" shape-rendering="geometricPrecision" transform="matrix(1,0,0,1,-65,-100)" stroke="rgb(255,204,0)">
      <rect x="900.4" width="136" height="30" y="197.5" clip-path="url(#clipPath2)" stroke="none"/>
    </g>
    <g text-rendering="geometricPrecision" stroke-miterlimit="1.45" shape-rendering="geometricPrecision" font-family="sans-serif" transform="matrix(1,0,0,1,-65,-100)" stroke-linecap="butt">
      <text x="940.2574" xml:space="preserve" y="217.0352" clip-path="url(#clipPath2)" stroke="none">Geometry</text>
      <rect fill="none" x="900.4" width="136" height="30" y="197.5" clip-path="url(#clipPath2)"/>
    </g>
    <g fill="rgb(255,204,0)" text-rendering="geometricPrecision" shape-rendering="geometricPrecision" transform="matrix(1,0,0,1,-65,-100)" stroke="rgb(255,204,0)">
      <rect x="900.4" width="136" height="30" y="162.5" clip-path="url(#clipPath2)" stroke="none"/>
    </g>
    <g text-rendering="geometricPrecision" stroke-miterlimit="1.45" shape-rendering="geometricPrecision" font-family="sans-serif" transform="matrix(1,0,0,1,-65,-100)" stroke-linecap="butt">
      <text x="937.6002" xml:space="preserve" y="182.0352" clip-path="url(#clipPath2)" stroke="none">Size (Area)</text>
      <rect fill="none" x="900.4" width="136" height="30" y="162.5" clip-path="url(#clipPath2)"/>
    </g>
    <g fill="rgb(255,204,0)" text-rendering="geometricPrecision" shape-rendering="geometricPrecision" transform="matrix(1,0,0,1,-65,-100)" stroke="rgb(255,204,0)">
      <rect x="900.4" width="136" height="30" y="265" clip-path="url(#clipPath2)" stroke="none"/>
    </g>
    <g text-rendering="geometricPrecision" stroke-miterlimit="1.45" shape-rendering="geometricPrecision" font-family="sans-serif" transform="matrix(1,0,0,1,-65,-100)" stroke-linecap="butt">
      <text x="932.5026" xml:space="preserve" y="284.5352" clip-path="url(#clipPath2)" stroke="none">Connectivity</text>
      <rect fill="none" x="900.4" width="136" height="30" y="265" clip-path="url(#clipPath2)"/>
    </g>
    <g fill="rgb(255,204,0)" text-rendering="geometricPrecision" shape-rendering="geometricPrecision" transform="matrix(1,0,0,1,-65,-100)" stroke="rgb(255,204,0)">
      <rect x="900.4" width="136" height="30" y="231.25" clip-path="url(#clipPath2)" stroke="none"/>
    </g>
    <g text-rendering="geometricPrecision" stroke-miterlimit="1.45" shape-rendering="geometricPrecision" font-family="sans-serif" transform="matrix(1,0,0,1,-65,-100)" stroke-linecap="butt">
      <text x="912.3698" xml:space="preserve" y="250.7852" clip-path="url(#clipPath2)" stroke="none">Region partitioning</text>
      <rect fill="none" x="900.4" width="136" height="30" y="231.25" clip-path="url(#clipPath2)"/>
    </g>
    <g fill="rgb(153,204,255)" text-rendering="geometricPrecision" shape-rendering="geometricPrecision" transform="matrix(1,0,0,1,-65,-100)" stroke="rgb(153,204,255)">
      <rect x="668.9625" width="136" height="30" y="162.5" clip-path="url(#clipPath2)" stroke="none"/>
    </g>
    <g text-rendering="geometricPrecision" stroke-miterlimit="1.45" shape-rendering="geometricPrecision" font-family="sans-serif" transform="matrix(1,0,0,1,-65,-100)" stroke-linecap="butt">
      <text x="709.7487" xml:space="preserve" y="182.0352" clip-path="url(#clipPath2)" stroke="none">Cell_Area</text>
      <rect fill="none" x="668.9625" width="136" height="30" y="162.5" clip-path="url(#clipPath2)"/>
    </g>
    <g fill="rgb(153,204,255)" text-rendering="geometricPrecision" shape-rendering="geometricPrecision" transform="matrix(1,0,0,1,-65,-100)" stroke="rgb(153,204,255)">
      <rect x="734.4" width="136" height="30" y="201.25" clip-path="url(#clipPath2)" stroke="none"/>
    </g>
    <g text-rendering="geometricPrecision" stroke-miterlimit="1.45" shape-rendering="geometricPrecision" font-family="sans-serif" transform="matrix(1,0,0,1,-65,-100)" stroke-linecap="butt">
      <text x="737.8912" xml:space="preserve" y="220.7852" clip-path="url(#clipPath2)" stroke="none">Cell_Voronoi_Diagram</text>
      <rect fill="none" x="734.4" width="136" height="30" y="201.25" clip-path="url(#clipPath2)"/>
    </g>
    <g fill="rgb(153,204,255)" text-rendering="geometricPrecision" shape-rendering="geometricPrecision" transform="matrix(1,0,0,1,-65,-100)" stroke="rgb(153,204,255)">
      <rect x="734.4" width="136" height="30" y="240" clip-path="url(#clipPath2)" stroke="none"/>
    </g>
    <g text-rendering="geometricPrecision" stroke-miterlimit="1.45" shape-rendering="geometricPrecision" font-family="sans-serif" transform="matrix(1,0,0,1,-65,-100)" stroke-linecap="butt">
      <text x="747.0992" xml:space="preserve" y="259.5352" clip-path="url(#clipPath2)" stroke="none">Cell_Polygon_Class</text>
      <rect fill="none" x="734.4" width="136" height="30" y="240" clip-path="url(#clipPath2)"/>
    </g>
    <g fill="rgb(153,204,255)" text-rendering="geometricPrecision" shape-rendering="geometricPrecision" transform="matrix(1,0,0,1,-65,-100)" stroke="rgb(153,204,255)">
      <rect x="725.2" width="154.4" height="30" y="282.5" clip-path="url(#clipPath2)" stroke="none"/>
    </g>
    <g text-rendering="geometricPrecision" stroke-miterlimit="1.45" shape-rendering="geometricPrecision" font-family="sans-serif" transform="matrix(1,0,0,1,-65,-100)" stroke-linecap="butt">
      <text x="734.7535" xml:space="preserve" y="302.0352" clip-path="url(#clipPath2)" stroke="none">Ellipse_Fit &amp; Elongation</text>
      <rect fill="none" x="725.2" width="154.4" height="30" y="282.5" clip-path="url(#clipPath2)"/>
    </g>
    <g fill="rgb(153,204,255)" text-rendering="geometricPrecision" shape-rendering="geometricPrecision" transform="matrix(1,0,0,1,-65,-100)" stroke="rgb(153,204,255)">
      <rect x="665.8" width="136" height="30" y="325" clip-path="url(#clipPath2)" stroke="none"/>
    </g>
    <g text-rendering="geometricPrecision" stroke-miterlimit="1.45" shape-rendering="geometricPrecision" font-family="sans-serif" transform="matrix(1,0,0,1,-65,-100)" stroke-linecap="butt">
      <text x="690.2766" xml:space="preserve" y="344.5352" clip-path="url(#clipPath2)" stroke="none">Cell_Color_Tag</text>
      <rect fill="none" x="665.8" width="136" height="30" y="325" clip-path="url(#clipPath2)"/>
    </g>
    <g fill="rgb(153,204,0)" text-rendering="geometricPrecision" shape-rendering="geometricPrecision" transform="matrix(1,0,0,1,-65,-100)" stroke="rgb(153,204,0)">
      <ellipse rx="62" ry="47" clip-path="url(#clipPath2)" cx="554.5" cy="328" stroke="none"/>
    </g>
    <g text-rendering="geometricPrecision" stroke-miterlimit="1.45" shape-rendering="geometricPrecision" font-family="sans-serif" transform="matrix(1,0,0,1,-65,-100)" stroke-linecap="butt">
      <text x="507.417" xml:space="preserve" y="332.5352" clip-path="url(#clipPath2)" stroke="none">Tracking - Time</text>
      <ellipse rx="62" fill="none" ry="47" clip-path="url(#clipPath2)" cx="554.5" cy="328"/>
    </g>
    <g fill="rgb(153,204,255)" text-rendering="geometricPrecision" shape-rendering="geometricPrecision" transform="matrix(1,0,0,1,-65,-100)" stroke="rgb(153,204,255)">
      <rect x="684" width="186.4" height="30" y="391" clip-path="url(#clipPath2)" stroke="none"/>
    </g>
    <g text-rendering="geometricPrecision" stroke-miterlimit="1.45" shape-rendering="geometricPrecision" font-family="sans-serif" transform="matrix(1,0,0,1,-65,-100)" stroke-linecap="butt">
      <text x="698.5174" xml:space="preserve" y="410.5352" clip-path="url(#clipPath2)" stroke="none">Divisions_and_Eliminations</text>
      <rect fill="none" x="684" width="186.4" height="30" y="391" clip-path="url(#clipPath2)"/>
    </g>
    <g fill="rgb(153,204,255)" text-rendering="geometricPrecision" shape-rendering="geometricPrecision" transform="matrix(1,0,0,1,-65,-100)" stroke="rgb(153,204,255)">
      <rect x="241" width="136" height="30" y="391" clip-path="url(#clipPath2)" stroke="none"/>
    </g>
    <g text-rendering="geometricPrecision" stroke-miterlimit="1.45" shape-rendering="geometricPrecision" font-family="sans-serif" transform="matrix(1,0,0,1,-65,-100)" stroke-linecap="butt">
      <text x="248.127" xml:space="preserve" y="410.5352" clip-path="url(#clipPath2)" stroke="none">Tracking_corrections</text>
      <rect fill="none" x="241" width="136" height="30" y="391" clip-path="url(#clipPath2)"/>
    </g>
    <g fill="rgb(255,204,0)" text-rendering="geometricPrecision" shape-rendering="geometricPrecision" transform="matrix(1,0,0,1,-65,-100)" stroke="rgb(255,204,0)">
      <rect x="828.5063" width="168.8125" height="30" y="430" clip-path="url(#clipPath2)" stroke="none"/>
    </g>
    <g text-rendering="geometricPrecision" stroke-miterlimit="1.45" shape-rendering="geometricPrecision" font-family="sans-serif" transform="matrix(1,0,0,1,-65,-100)" stroke-linecap="butt">
      <text x="840.5873" xml:space="preserve" y="449.5352" clip-path="url(#clipPath2)" stroke="none">Divisions location &amp; time</text>
      <rect fill="none" x="828.5063" width="168.8125" height="30" y="430" clip-path="url(#clipPath2)"/>
    </g>
    <g fill="rgb(255,204,0)" text-rendering="geometricPrecision" shape-rendering="geometricPrecision" transform="matrix(1,0,0,1,-65,-100)" stroke="rgb(255,204,0)">
      <rect x="651.6875" width="168.8125" height="30" y="430" clip-path="url(#clipPath2)" stroke="none"/>
    </g>
    <g text-rendering="geometricPrecision" stroke-miterlimit="1.45" shape-rendering="geometricPrecision" font-family="sans-serif" transform="matrix(1,0,0,1,-65,-100)" stroke-linecap="butt">
      <text x="657.6162" xml:space="preserve" y="449.5352" clip-path="url(#clipPath2)" stroke="none">Elimination location &amp; time</text>
      <rect fill="none" x="651.6875" width="168.8125" height="30" y="430" clip-path="url(#clipPath2)"/>
    </g>
    <g fill="rgb(255,204,0)" text-rendering="geometricPrecision" shape-rendering="geometricPrecision" transform="matrix(1,0,0,1,-65,-100)" stroke="rgb(255,204,0)">
      <rect x="80.2" width="136" height="30" y="368" clip-path="url(#clipPath2)" stroke="none"/>
    </g>
    <g text-rendering="geometricPrecision" stroke-miterlimit="1.45" shape-rendering="geometricPrecision" font-family="sans-serif" transform="matrix(1,0,0,1,-65,-100)" stroke-linecap="butt">
      <text x="90.3797" xml:space="preserve" y="387.5352" clip-path="url(#clipPath2)" stroke="none">Growth &amp; Shrinkage</text>
      <rect fill="none" x="80.2" width="136" height="30" y="368" clip-path="url(#clipPath2)"/>
    </g>
    <g fill="rgb(153,204,255)" text-rendering="geometricPrecision" shape-rendering="geometricPrecision" transform="matrix(1,0,0,1,-65,-100)" stroke="rgb(153,204,255)">
      <rect x="534.8" width="136" height="30" y="391" clip-path="url(#clipPath2)" stroke="none"/>
    </g>
    <g text-rendering="geometricPrecision" stroke-miterlimit="1.45" shape-rendering="geometricPrecision" font-family="sans-serif" transform="matrix(1,0,0,1,-65,-100)" stroke-linecap="butt">
      <text x="543.6672" xml:space="preserve" y="410.5352" clip-path="url(#clipPath2)" stroke="none">Division_Orientation</text>
      <rect fill="none" x="534.8" width="136" height="30" y="391" clip-path="url(#clipPath2)"/>
    </g>
    <g fill="rgb(153,204,0)" text-rendering="geometricPrecision" shape-rendering="geometricPrecision" transform="matrix(1,0,0,1,-65,-100)" stroke="rgb(153,204,0)">
      <rect x="510.325" width="89.3125" height="30" y="115" clip-path="url(#clipPath2)" stroke="none"/>
    </g>
    <g stroke-linecap="butt" transform="matrix(1,0,0,1,-65,-100)" text-rendering="geometricPrecision" font-family="sans-serif" shape-rendering="geometricPrecision" font-weight="bold" stroke-miterlimit="1.45">
      <text x="518.1697" xml:space="preserve" y="134.5352" clip-path="url(#clipPath2)" stroke="none">Core Topics</text>
    </g>
    <g fill="rgb(218,255,0)" text-rendering="geometricPrecision" shape-rendering="geometricPrecision" transform="matrix(1,0,0,1,-65,-100)" stroke="rgb(218,255,0)">
      <rect x="510.325" width="1" height="30" y="115" clip-path="url(#clipPath2)" stroke="none"/>
      <rect x="511.325" width="87.3125" height="1" y="115" clip-path="url(#clipPath2)" stroke="none"/>
      <rect x="511.325" y="144" clip-path="url(#clipPath2)" fill="rgb(107,142,0)" width="88.3125" height="1" stroke="none"/>
      <rect x="598.6375" y="115" clip-path="url(#clipPath2)" fill="rgb(107,142,0)" width="1" height="29" stroke="none"/>
      <rect x="684" y="115" clip-path="url(#clipPath2)" fill="rgb(153,204,255)" width="120.9625" height="30" stroke="none"/>
    </g>
    <g stroke-linecap="butt" transform="matrix(1,0,0,1,-65,-100)" text-rendering="geometricPrecision" font-family="sans-serif" shape-rendering="geometricPrecision" font-weight="bold" stroke-miterlimit="1.45">
      <text x="692.3358" xml:space="preserve" y="134.5352" clip-path="url(#clipPath2)" stroke="none">Related Overlays</text>
    </g>
    <g fill="rgb(218,255,255)" text-rendering="geometricPrecision" shape-rendering="geometricPrecision" transform="matrix(1,0,0,1,-65,-100)" stroke="rgb(218,255,255)">
      <rect x="684" width="1" height="30" y="115" clip-path="url(#clipPath2)" stroke="none"/>
      <rect x="685" width="118.9625" height="1" y="115" clip-path="url(#clipPath2)" stroke="none"/>
      <rect x="685" y="144" clip-path="url(#clipPath2)" fill="rgb(107,142,178)" width="119.9625" height="1" stroke="none"/>
      <rect x="803.9625" y="115" clip-path="url(#clipPath2)" fill="rgb(107,142,178)" width="1" height="29" stroke="none"/>
      <rect x="914.525" y="115" clip-path="url(#clipPath2)" fill="rgb(255,204,0)" width="107.75" height="30" stroke="none"/>
    </g>
    <g stroke-linecap="butt" transform="matrix(1,0,0,1,-65,-100)" text-rendering="geometricPrecision" font-family="sans-serif" shape-rendering="geometricPrecision" font-weight="bold" stroke-miterlimit="1.45">
      <text x="926.2418" xml:space="preserve" y="134.5352" clip-path="url(#clipPath2)" stroke="none">Example Data</text>
    </g>
    <g fill="yellow" text-rendering="geometricPrecision" shape-rendering="geometricPrecision" transform="matrix(1,0,0,1,-65,-100)" stroke="yellow">
      <rect x="914.525" width="1" height="30" y="115" clip-path="url(#clipPath2)" stroke="none"/>
      <rect x="915.525" width="105.75" height="1" y="115" clip-path="url(#clipPath2)" stroke="none"/>
      <rect x="915.525" y="144" clip-path="url(#clipPath2)" fill="rgb(178,142,0)" width="106.75" height="1" stroke="none"/>
      <rect x="1021.275" y="115" clip-path="url(#clipPath2)" fill="rgb(178,142,0)" width="1" height="29" stroke="none"/>
      <rect x="304.0375" y="115" clip-path="url(#clipPath2)" fill="rgb(153,204,255)" width="120.9625" height="30" stroke="none"/>
    </g>
    <g stroke-linecap="butt" transform="matrix(1,0,0,1,-65,-100)" text-rendering="geometricPrecision" font-family="sans-serif" shape-rendering="geometricPrecision" font-weight="bold" stroke-miterlimit="1.45">
      <text x="312.3732" xml:space="preserve" y="134.5352" clip-path="url(#clipPath2)" stroke="none">Related Overlays</text>
    </g>
    <g fill="rgb(218,255,255)" text-rendering="geometricPrecision" shape-rendering="geometricPrecision" transform="matrix(1,0,0,1,-65,-100)" stroke="rgb(218,255,255)">
      <rect x="304.0375" width="1" height="30" y="115" clip-path="url(#clipPath2)" stroke="none"/>
      <rect x="305.0375" width="118.9625" height="1" y="115" clip-path="url(#clipPath2)" stroke="none"/>
      <rect x="305.0375" y="144" clip-path="url(#clipPath2)" fill="rgb(107,142,178)" width="119.9625" height="1" stroke="none"/>
      <rect x="424" y="115" clip-path="url(#clipPath2)" fill="rgb(107,142,178)" width="1" height="29" stroke="none"/>
      <rect x="87.2625" y="115" clip-path="url(#clipPath2)" fill="rgb(255,204,0)" width="121.875" height="30" stroke="none"/>
    </g>
    <g stroke-linecap="butt" transform="matrix(1,0,0,1,-65,-100)" text-rendering="geometricPrecision" font-family="sans-serif" shape-rendering="geometricPrecision" font-weight="bold" stroke-miterlimit="1.45">
      <text x="106.0418" xml:space="preserve" y="134.5352" clip-path="url(#clipPath2)" stroke="none">Example Data</text>
    </g>
    <g fill="yellow" text-rendering="geometricPrecision" shape-rendering="geometricPrecision" transform="matrix(1,0,0,1,-65,-100)" stroke="yellow">
      <rect x="87.2625" width="1" height="30" y="115" clip-path="url(#clipPath2)" stroke="none"/>
      <rect x="88.2625" width="119.875" height="1" y="115" clip-path="url(#clipPath2)" stroke="none"/>
      <rect x="88.2625" y="144" clip-path="url(#clipPath2)" fill="rgb(178,142,0)" width="120.875" height="1" stroke="none"/>
      <rect x="208.1375" y="115" clip-path="url(#clipPath2)" fill="rgb(178,142,0)" width="1" height="29" stroke="none"/>
      <rect x="387.9" y="391" clip-path="url(#clipPath2)" fill="rgb(153,204,255)" width="136" height="30" stroke="none"/>
    </g>
    <g text-rendering="geometricPrecision" stroke-miterlimit="1.45" shape-rendering="geometricPrecision" font-family="sans-serif" transform="matrix(1,0,0,1,-65,-100)" stroke-linecap="butt">
      <text x="408.9547" xml:space="preserve" y="410.5352" clip-path="url(#clipPath2)" stroke="none">Tracking_review</text>
      <rect fill="none" x="387.9" width="136" height="30" y="391" clip-path="url(#clipPath2)"/>
    </g>
    <g fill="rgb(255,204,0)" text-rendering="geometricPrecision" shape-rendering="geometricPrecision" transform="matrix(1,0,0,1,-65,-100)" stroke="rgb(255,204,0)">
      <rect x="452.1813" width="191.5" height="30" y="430" clip-path="url(#clipPath2)" stroke="none"/>
    </g>
    <g text-rendering="geometricPrecision" stroke-miterlimit="1.45" shape-rendering="geometricPrecision" font-family="sans-serif" transform="matrix(1,0,0,1,-65,-100)" stroke-linecap="butt">
      <text x="461.6695" xml:space="preserve" y="449.5352" clip-path="url(#clipPath2)" stroke="none">Mother-Doughter Orientation</text>
      <rect fill="none" x="452.1813" width="191.5" height="30" y="430" clip-path="url(#clipPath2)"/>
    </g>
    <g fill="rgb(255,204,0)" text-rendering="geometricPrecision" shape-rendering="geometricPrecision" transform="matrix(1,0,0,1,-65,-100)" stroke="rgb(255,204,0)">
      <rect x="321.5125" width="121.875" height="30" y="430" clip-path="url(#clipPath2)" stroke="none"/>
    </g>
    <g text-rendering="geometricPrecision" stroke-miterlimit="1.45" shape-rendering="geometricPrecision" font-family="sans-serif" transform="matrix(1,0,0,1,-65,-100)" stroke-linecap="butt">
      <text x="328.9686" xml:space="preserve" y="449.5352" clip-path="url(#clipPath2)" stroke="none">Tracking Positions</text>
      <rect fill="none" x="321.5125" width="121.875" height="30" y="430" clip-path="url(#clipPath2)"/>
    </g>
    <g fill="rgb(255,204,0)" text-rendering="geometricPrecision" shape-rendering="geometricPrecision" transform="matrix(1,0,0,1,-65,-100)" stroke="rgb(255,204,0)">
      <rect x="900.4" width="136" height="30" y="369.25" clip-path="url(#clipPath2)" stroke="none"/>
    </g>
    <g text-rendering="geometricPrecision" stroke-miterlimit="1.45" shape-rendering="geometricPrecision" font-family="sans-serif" transform="matrix(1,0,0,1,-65,-100)" stroke-linecap="butt">
      <text x="918.3492" xml:space="preserve" y="388.7852" clip-path="url(#clipPath2)" stroke="none">Manual Grouping</text>
      <rect fill="none" x="900.4" width="136" height="30" y="369.25" clip-path="url(#clipPath2)"/>
    </g>
    <g fill="rgb(255,204,0)" text-rendering="geometricPrecision" shape-rendering="geometricPrecision" transform="matrix(1,0,0,1,-65,-100)" stroke="rgb(255,204,0)">
      <rect x="126.3188" width="186.4" height="30" y="430" clip-path="url(#clipPath2)" stroke="none"/>
    </g>
    <g text-rendering="geometricPrecision" stroke-miterlimit="1.45" shape-rendering="geometricPrecision" font-family="sans-serif" transform="matrix(1,0,0,1,-65,-100)" stroke-linecap="butt">
      <text x="133.4533" xml:space="preserve" y="449.5352" clip-path="url(#clipPath2)" stroke="none">Likely segmentation mistakes</text>
      <rect fill="none" x="126.3188" width="186.4" height="30" y="430" clip-path="url(#clipPath2)"/>
      <path fill="none" d="M444.7332 269.0768 L383.6471 321" clip-path="url(#clipPath2)"/>
      <path fill="none" d="M430.1123 254.349 L352.7968 282.5" clip-path="url(#clipPath2)"/>
      <path fill="none" d="M434.9394 207.3401 L401.7288 190" clip-path="url(#clipPath2)"/>
      <path fill="none" d="M424.6124 227.4104 L377 222.2994" clip-path="url(#clipPath2)"/>
      <path fill="none" d="M424.7457 241.2675 L377 246.9322" clip-path="url(#clipPath2)"/>
      <path fill="none" d="M548 234 L560.475 234" clip-path="url(#clipPath2)"/>
      <path fill="none" d="M674.4346 208.3577 L706.5676 192.5" clip-path="url(#clipPath2)"/>
      <path fill="none" d="M683.9565 227.9347 L734.4 222.9583" clip-path="url(#clipPath2)"/>
      <path fill="none" d="M683.7529 241.1521 L734.4 247.0634" clip-path="url(#clipPath2)"/>
      <path fill="none" d="M678.6821 253.8369 L759.898 282.5" clip-path="url(#clipPath2)"/>
      <path fill="none" d="M661.092 270.7698 L718.0464 325" clip-path="url(#clipPath2)"/>
      <path fill="none" d="M592.6718 275.2137 L584.3032 286.7863" clip-path="url(#clipPath2)"/>
      <path fill="none" d="M524.5203 286.86 L515.9797 275.14" clip-path="url(#clipPath2)"/>
      <path fill="none" d="M610.783 347.713 L734.373 391" clip-path="url(#clipPath2)"/>
      <path fill="none" d="M497.3191 346.1674 L356.2115 391" clip-path="url(#clipPath2)"/>
      <path fill="none" d="M580.8456 370.5457 L593.5115 391" clip-path="url(#clipPath2)"/>
      <path fill="none" d="M511.6033 361.9345 L474.8615 391" clip-path="url(#clipPath2)"/>
    </g>
  </g>
</svg>
